<svg width="53" height="13" viewBox="0 0 53 13" fill="none" xmlns="http://www.w3.org/2000/svg">
<path d="M0.676758 13V10.9346H2.53125V2.83984H0.676758V0.774414H7.58496V2.83984H5.71289V10.9346H7.58496V13H0.676758ZM8.45508 13V10.9346H10.0371V2.83984H8.45508V0.774414H14.5811L17.2705 7.94629L19.9688 0.774414H26.2178V2.83984H24.6357V10.9346H26.2178V13H20.0654V10.9346H21.542V2.83984H21.252L17.4639 13H16.1455L12.3135 2.83984H12.0234V10.9346H13.623V13H8.45508ZM27.1406 13V10.9346H28.9951V2.83984H27.1406V0.774414H32.9326C34.1514 0.774414 35.1328 0.850586 35.877 1.00293C36.6211 1.14941 37.333 1.48047 38.0127 1.99609C38.6924 2.50586 39.2373 3.19141 39.6475 4.05273C40.0576 4.91406 40.2627 5.86914 40.2627 6.91797C40.2627 7.76758 40.1191 8.5791 39.832 9.35254C39.5449 10.1201 39.1875 10.7412 38.7598 11.2158C38.3379 11.6846 37.8311 12.0596 37.2393 12.3408C36.6475 12.6162 36.1025 12.7949 35.6045 12.877C35.1123 12.959 34.3477 13 33.3105 13H27.1406ZM32.168 10.9346H32.9326C33.8584 10.9346 34.5908 10.8145 35.1299 10.5742C35.6748 10.334 36.1113 9.91211 36.4395 9.30859C36.7676 8.69922 36.9316 7.90527 36.9316 6.92676C36.9316 5.99512 36.7646 5.2041 36.4307 4.55371C36.1025 3.90332 35.6543 3.45508 35.0859 3.20898C34.5234 2.96289 33.8057 2.83984 32.9326 2.83984H32.168V10.9346ZM41.748 13V10.9346H43.251V2.83984H41.748V0.774414H47.3291C48.5654 0.774414 49.4854 0.847656 50.0889 0.994141C50.6924 1.13477 51.2139 1.4834 51.6533 2.04004C52.0928 2.59082 52.3125 3.23828 52.3125 3.98242C52.3125 5.17188 51.7383 6.0127 50.5898 6.50488C52.0547 7.0498 52.7871 8.02539 52.7871 9.43164C52.7871 10.2402 52.5586 10.9346 52.1016 11.5146C51.6504 12.0889 51.0645 12.4814 50.3438 12.6924C49.6289 12.8975 48.624 13 47.3291 13H41.748ZM46.4326 5.59961H47.3291C47.9502 5.59961 48.4072 5.49414 48.7002 5.2832C48.9932 5.07227 49.1396 4.7002 49.1396 4.16699C49.1396 3.68066 48.9961 3.33789 48.709 3.13867C48.4277 2.93945 47.9326 2.83984 47.2236 2.83984H46.4326V5.59961ZM46.4326 10.9346H47.3291C48.1436 10.9346 48.7119 10.8174 49.0342 10.583C49.3564 10.3486 49.5176 9.93555 49.5176 9.34375C49.5176 8.72266 49.3418 8.28906 48.9902 8.04297C48.6445 7.79102 48.0908 7.66504 47.3291 7.66504H46.4326V10.9346Z" fill="white"/>
</svg>
