<svg width="77" height="20" viewBox="0 0 77 20" fill="none" xmlns="http://www.w3.org/2000/svg">
<path d="M1.3844 15.2482V3.87323H5.36877C6.74898 3.87323 7.79586 4.13885 8.5094 4.6701C9.22294 5.19615 9.57971 5.96958 9.57971 6.99042C9.57971 7.54771 9.43648 8.0399 9.15002 8.46698C8.86357 8.88885 8.46513 9.19875 7.95471 9.39667C8.53805 9.5425 8.99638 9.83677 9.32971 10.2795C9.66825 10.7222 9.83752 11.2639 9.83752 11.9045C9.83752 12.9982 9.48857 13.8264 8.79065 14.3889C8.09273 14.9514 7.09794 15.2378 5.80627 15.2482H1.3844ZM3.72815 10.2951V13.3654H5.73596C6.28805 13.3654 6.71773 13.2352 7.02502 12.9748C7.33752 12.7092 7.49377 12.3446 7.49377 11.881C7.49377 10.8394 6.95471 10.3107 5.87659 10.2951H3.72815ZM3.72815 8.63885H5.46252C6.64482 8.61802 7.23596 8.14667 7.23596 7.22479C7.23596 6.70917 7.08492 6.33938 6.78284 6.11542C6.48596 5.88625 6.01461 5.77167 5.36877 5.77167H3.72815V8.63885ZM16.3531 15.2482C16.249 15.0451 16.1735 14.7925 16.1266 14.4904C15.5797 15.0998 14.8688 15.4045 13.9938 15.4045C13.1656 15.4045 12.4781 15.1649 11.9313 14.6857C11.3896 14.2066 11.1188 13.6024 11.1188 12.8732C11.1188 11.9774 11.4495 11.2899 12.111 10.8107C12.7776 10.3316 13.7386 10.0894 14.9938 10.0842H16.0328V9.59979C16.0328 9.20917 15.9313 8.89667 15.7281 8.66229C15.5302 8.42792 15.2151 8.31073 14.7828 8.31073C14.4026 8.31073 14.1031 8.40188 13.8844 8.58417C13.6709 8.76646 13.5641 9.01646 13.5641 9.33417H11.3063C11.3063 8.84458 11.4573 8.39146 11.7594 7.97479C12.0615 7.55813 12.4886 7.2326 13.0406 6.99823C13.5927 6.75865 14.2125 6.63885 14.9 6.63885C15.9417 6.63885 16.7672 6.90188 17.3766 7.42792C17.9912 7.94875 18.2985 8.68313 18.2985 9.63104V13.2951C18.3037 14.0972 18.4156 14.704 18.6344 15.1154V15.2482H16.3531ZM14.486 13.6779C14.8193 13.6779 15.1266 13.605 15.4078 13.4592C15.6891 13.3081 15.8974 13.1076 16.0328 12.8576V11.4045H15.1891C14.0589 11.4045 13.4573 11.7951 13.3844 12.5764L13.3766 12.7092C13.3766 12.9904 13.4755 13.2222 13.6735 13.4045C13.8714 13.5868 14.1422 13.6779 14.486 13.6779ZM19.7047 10.9592C19.7047 9.66229 20.012 8.61802 20.6266 7.82635C21.2464 7.03469 22.0797 6.63885 23.1266 6.63885C24.0537 6.63885 24.775 6.95656 25.2906 7.59198L25.3844 6.7951H27.4313V14.967C27.4313 15.7066 27.262 16.3498 26.9235 16.8967C26.5901 17.4435 26.1188 17.8602 25.5094 18.1467C24.9 18.4331 24.1865 18.5764 23.3688 18.5764C22.749 18.5764 22.1448 18.4514 21.5563 18.2014C20.9677 17.9566 20.5224 17.6389 20.2203 17.2482L21.2203 15.8732C21.7828 16.5034 22.4651 16.8185 23.2672 16.8185C23.8662 16.8185 24.3323 16.6571 24.6656 16.3342C24.999 16.0165 25.1656 15.5633 25.1656 14.9748V14.5217C24.6448 15.1102 23.9599 15.4045 23.111 15.4045C22.0953 15.4045 21.2724 15.0086 20.6422 14.217C20.0172 13.4201 19.7047 12.3654 19.7047 11.0529V10.9592ZM21.9625 11.1232C21.9625 11.8889 22.1162 12.4904 22.4235 12.9279C22.7308 13.3602 23.1526 13.5764 23.6891 13.5764C24.3766 13.5764 24.8688 13.3185 25.1656 12.8029V9.24823C24.8636 8.7326 24.3766 8.47479 23.7047 8.47479C23.163 8.47479 22.736 8.69615 22.4235 9.13885C22.1162 9.58156 21.9625 10.243 21.9625 11.1232ZM35.7985 15.2482H33.4547V3.87323H35.7985V15.2482ZM39.9078 6.7951L39.9781 7.77167C40.5823 7.01646 41.3922 6.63885 42.4078 6.63885C43.3037 6.63885 43.9703 6.90188 44.4078 7.42792C44.8453 7.95396 45.0693 8.74042 45.0797 9.78729V15.2482H42.8219V9.84198C42.8219 9.36281 42.7177 9.01646 42.5094 8.80292C42.3011 8.58417 41.9547 8.47479 41.4703 8.47479C40.8349 8.47479 40.3584 8.74563 40.0406 9.28729V15.2482H37.7828V6.7951H39.9078Z" fill="white"/>
<path d="M55 10C56.6569 10 58 8.65685 58 7C58 5.34315 56.6569 4 55 4C53.3431 4 52 5.34315 52 7C52 8.65685 53.3431 10 55 10Z" fill="white"/>
<path d="M74 10C75.6569 10 77 8.65685 77 7C77 5.34315 75.6569 4 74 4C72.3431 4 71 5.34315 71 7C71 8.65685 72.3431 10 74 10Z" fill="white"/>
<path d="M74 7C74 18.9033 55 19.0963 55 7" stroke="white" stroke-width="2"/>
</svg>
