<svg width="15" height="15" viewBox="0 0 15 15" fill="none" xmlns="http://www.w3.org/2000/svg">
<g clip-path="url(#clip0)">
<path d="M14.1721 15.0001C14.6293 15.0001 15 14.6294 15 14.1722V0.827871C15 0.370605 14.6293 0 14.1721 0H0.827871C0.370547 0 0 0.370605 0 0.827871V14.1722C0 14.6294 0.370547 15.0001 0.827871 15.0001H14.1721Z" fill="#395185"/>
<path d="M10.3497 15V9.19123H12.2995L12.5914 6.92746H10.3497V5.48206C10.3497 4.82664 10.5318 4.37998 11.4717 4.37998L12.6704 4.37945V2.35474C12.463 2.32714 11.7514 2.2655 10.9236 2.2655C9.19524 2.2655 8.01199 3.32048 8.01199 5.25794V6.92746H6.05719V9.19123H8.01199V15H10.3497Z" fill="white"/>
</g>
<defs>
<clipPath id="clip0">
<rect width="15" height="15" fill="white"/>
</clipPath>
</defs>
</svg>
