<svg width="15" height="15" viewBox="0 0 15 15" fill="none" xmlns="http://www.w3.org/2000/svg">
<path d="M13.6284 6.27594H13.125V6.25H7.5V8.75H11.0322C10.5169 10.2053 9.13219 11.25 7.5 11.25C5.42906 11.25 3.75 9.57094 3.75 7.5C3.75 5.42906 5.42906 3.75 7.5 3.75C8.45594 3.75 9.32563 4.11062 9.98781 4.69969L11.7556 2.93187C10.6394 1.89156 9.14625 1.25 7.5 1.25C4.04844 1.25 1.25 4.04844 1.25 7.5C1.25 10.9516 4.04844 13.75 7.5 13.75C10.9516 13.75 13.75 10.9516 13.75 7.5C13.75 7.08094 13.7069 6.67188 13.6284 6.27594Z" fill="#FFC107"/>
<path d="M1.97061 4.59094L4.02405 6.09688C4.57967 4.72125 5.9253 3.75 7.49999 3.75C8.45592 3.75 9.32561 4.11062 9.9878 4.69969L11.7556 2.93187C10.6394 1.89156 9.14624 1.25 7.49999 1.25C5.09936 1.25 3.01749 2.60531 1.97061 4.59094Z" fill="#FF3D00"/>
<path d="M7.50001 13.75C9.11438 13.75 10.5813 13.1322 11.6903 12.1275L9.75594 10.4906C9.10736 10.9838 8.31484 11.2506 7.50001 11.25C5.87438 11.25 4.49407 10.2134 3.97407 8.76685L1.93594 10.3372C2.97032 12.3612 5.07094 13.75 7.50001 13.75Z" fill="#4CAF50"/>
<path d="M13.6284 6.27594H13.125V6.25H7.5V8.75H11.0322C10.7857 9.44263 10.3417 10.0479 9.755 10.4909L9.75594 10.4903L11.6903 12.1272C11.5534 12.2516 13.75 10.625 13.75 7.5C13.75 7.08094 13.7069 6.67188 13.6284 6.27594Z" fill="#1976D2"/>
</svg>
