<svg width="16" height="16" viewBox="0 0 16 16" fill="none" xmlns="http://www.w3.org/2000/svg">
<path d="M11.0128 0.5H4.96025C3.77762 0.50139 2.64383 0.971857 1.80765 1.80818C0.971467 2.6445 0.501191 3.77836 0.5 4.961L0.5 11.0135C0.50139 12.1961 0.971857 13.3299 1.80818 14.1661C2.6445 15.0023 3.77836 15.4726 4.961 15.4738H11.0135C12.1961 15.4724 13.3299 15.0019 14.1661 14.1656C15.0023 13.3293 15.4726 12.1954 15.4738 11.0128V4.96025C15.4724 3.77762 15.0019 2.64383 14.1656 1.80765C13.3293 0.971467 12.1954 0.501191 11.0128 0.5V0.5ZM13.9678 11.0128C13.9678 11.4008 13.8913 11.7851 13.7428 12.1436C13.5943 12.5021 13.3766 12.8279 13.1023 13.1023C12.8279 13.3766 12.5021 13.5943 12.1436 13.7428C11.7851 13.8913 11.4008 13.9678 11.0128 13.9678H4.96025C4.17667 13.9676 3.42524 13.6561 2.87123 13.102C2.31723 12.5478 2.006 11.7963 2.006 11.0128V4.96025C2.0062 4.17667 2.31762 3.42524 2.87176 2.87123C3.42591 2.31723 4.17742 2.006 4.961 2.006H11.0135C11.7971 2.0062 12.5485 2.31762 13.1025 2.87176C13.6565 3.42591 13.9678 4.17742 13.9678 4.961V11.0135V11.0128Z" fill="#FFA2A2"/>
<path d="M7.98649 4.11426C6.96006 4.11585 5.97614 4.52435 5.25041 5.25021C4.52469 5.97608 4.11638 6.96008 4.11499 7.98651C4.11618 9.0132 4.52451 9.9975 5.25042 10.7236C5.97632 11.4496 6.96055 11.8581 7.98724 11.8595C9.01406 11.8583 9.99848 11.4499 10.7246 10.7238C11.4506 9.99775 11.859 9.01333 11.8602 7.98651C11.8587 6.95982 11.4499 5.97567 10.7238 5.2499C9.99757 4.52414 9.01318 4.116 7.98649 4.11501V4.11426ZM7.98649 10.3535C7.35892 10.3535 6.75706 10.1042 6.3133 9.66045C5.86954 9.21669 5.62024 8.61483 5.62024 7.98726C5.62024 7.35969 5.86954 6.75782 6.3133 6.31407C6.75706 5.87031 7.35892 5.62101 7.98649 5.62101C8.61406 5.62101 9.21592 5.87031 9.65968 6.31407C10.1034 6.75782 10.3527 7.35969 10.3527 7.98726C10.3527 8.61483 10.1034 9.21669 9.65968 9.66045C9.21592 10.1042 8.61406 10.3535 7.98649 10.3535Z" fill="#FFA2A2"/>
<path d="M11.867 5.0712C12.3794 5.0712 12.7948 4.65583 12.7948 4.14345C12.7948 3.63107 12.3794 3.2157 11.867 3.2157C11.3546 3.2157 10.9393 3.63107 10.9393 4.14345C10.9393 4.65583 11.3546 5.0712 11.867 5.0712Z" fill="#FFA2A2"/>
</svg>
