<svg width="11" height="9" viewBox="0 0 11 9" fill="none" xmlns="http://www.w3.org/2000/svg">
<path d="M9.29689 2.77797C9.21042 2.63792 9.0884 2.522 8.94257 2.4414C8.79683 2.36079 8.63228 2.3182 8.46473 2.31775H7.28294V1.36984C7.28294 1.24414 7.23179 1.12358 7.14074 1.0347C7.04968 0.94581 6.92619 0.895874 6.79742 0.895874H1.94212C1.40659 0.895874 0.971069 1.32101 0.971069 1.84379V6.58337C0.971069 6.93695 1.17304 7.24266 1.46777 7.40524C1.52749 8.26739 2.25772 8.95314 3.15595 8.95314C4.00999 8.95314 4.71158 8.33279 4.83053 7.53126H6.33664C6.4556 8.33279 7.15719 8.95314 8.01124 8.95314C8.86525 8.95314 9.5669 8.33279 9.68585 7.53126H9.71057C10.2461 7.53126 10.6817 7.10615 10.6817 6.58337V5.1615C10.6817 5.07548 10.6578 4.99107 10.6122 4.91742L9.29689 2.77797ZM7.28294 3.26567H8.46473L9.33868 4.68754H7.28294V3.26567ZM3.15595 8.00527C2.75441 8.00527 2.42766 7.68629 2.42766 7.29434C2.42766 6.90235 2.75441 6.58337 3.15595 6.58337C3.55748 6.58337 3.88424 6.90235 3.88424 7.29434C3.88424 7.68629 3.55748 8.00527 3.15595 8.00527ZM8.01124 8.00527C7.6097 8.00527 7.28294 7.68629 7.28294 7.29434C7.28294 6.90235 7.6097 6.58337 8.01124 6.58337C8.41279 6.58337 8.73956 6.90235 8.73956 7.29434C8.73956 7.68629 8.41279 8.00527 8.01124 8.00527Z" fill="#96DD85"/>
</svg>
