<svg width="16" height="12" viewBox="0 0 16 12" fill="none" xmlns="http://www.w3.org/2000/svg">
<path d="M15.3125 1.46988C14.7746 1.70191 14.1892 1.8689 13.5863 1.93394C14.2123 1.56205 14.6811 0.974528 14.9047 0.281599C14.3173 0.631033 13.6738 0.876062 13.0027 1.00582C12.7223 0.705981 12.383 0.467118 12.0062 0.304112C11.6294 0.141106 11.2231 0.05745 10.8125 0.0583569C9.15135 0.0583569 7.81542 1.40484 7.81542 3.05719C7.81542 3.28922 7.84354 3.52125 7.88925 3.74449C5.40194 3.61441 3.18358 2.42613 1.70878 0.606794C1.44005 1.06579 1.29923 1.5884 1.30096 2.12027C1.30096 3.1609 1.83007 4.07847 2.6369 4.61812C2.16142 4.5994 1.69707 4.46871 1.28163 4.23668V4.27359C1.28163 5.73082 2.31171 6.93844 3.68456 7.21617C3.42679 7.28313 3.16162 7.31738 2.8953 7.31812C2.70018 7.31812 2.51561 7.29879 2.32928 7.27242C2.70897 8.4607 3.81464 9.32379 5.13124 9.35191C4.10116 10.1587 2.81093 10.6334 1.40995 10.6334C1.15858 10.6334 0.92655 10.6246 0.68573 10.5964C2.01464 11.449 3.59139 11.9412 5.28944 11.9412C10.8019 11.9412 13.8183 7.37437 13.8183 3.41051C13.8183 3.28043 13.8183 3.15035 13.8096 3.02027C14.3932 2.59312 14.9047 2.06402 15.3125 1.46988Z" fill="#FFA2A2"/>
</svg>
